<?xml version="1.0" encoding="UTF-8" standalone="no"?>
<svg
   version="1.1"
   width="224"
   height="224"
   id="svg5"
   sodipodi:docname="lingonperry.svg"
   inkscape:version="1.4.2 (ebf0e940d0, 2025-05-08)"
   xmlns:inkscape="http://www.inkscape.org/namespaces/inkscape"
   xmlns:sodipodi="http://sodipodi.sourceforge.net/DTD/sodipodi-0.dtd"
   xmlns="http://www.w3.org/2000/svg"
   xmlns:svg="http://www.w3.org/2000/svg">
  <path
     id="path1"
     d="m 105.84813,20.331688 c -1.06259,-0.04128 -2.20332,0.22482 -3.70117,0.759765 0,3 0,3 1.33984,4.429688 4.8127,4.552243 7.08043,10.982453 8.25782,17.351562 0.27731,1.529259 0.60061,3.050647 0.96093,4.562501 l 0.56641,2.21875 0.75781,2.980468 c -2.74631,0.285457 -5.38027,1.105373 -7.49609,2.585938 l -1.69922,1.433594 c -6.017099,4.951131 -9.931382,11.220296 -12.652344,18.437499 -0.67704,1.871895 -1.368086,3.741409 -2.066406,5.605469 l -1.199219,3.171875 c -1.765746,4.672465 -3.60761,9.302297 -5.521485,13.916016 -0.662656,1.593397 -1.324521,3.188647 -1.984375,4.783207 -1.003313,2.42527 -2.006168,4.8499 -3.013671,7.27343 -3.600544,8.5403 -7.042802,17.01217 -9.513672,25.95898 l -0.666016,2.50977 c -1.644497,6.17369 -2.631545,11.90726 -2.300781,18.34375 l 0.230469,2.4375 c 0.3125,3.75 0.3125,3.75 1,7 4.160332,13.63664 12.070683,24.40002 24.3125,31.8125 13.74549,6.95729 26.74065,8.11365 41.40234,3.4375 12.44766,-4.73633 22.2227,-13.57161 28.10157,-25.5625 l 1.18359,-2.6875 1.02734,-2.25 c 7.33171,-19.46112 -0.99452,-40.12684 -8.40234,-58.0625 -3.09896,-7.40295 -6.09882,-14.766919 -8.58594,-22.400387 -4.41768,-13.820941 -8.47226,-28.598042 -21.75,-36.416016 -2.17344,-0.827096 -4.7058,-1.337108 -7.27343,-1.429687 0.27358,-10.743283 -1.58726,-20.964256 -7.01563,-30.441407 -1.69601,-1.145952 -2.93263,-1.706691 -4.29883,-1.759765 z m -29.57617,2.197265 c -3.948587,0.207468 -5.87799,0.874594 -6.5,5.125 0.991909,9.092503 6.646451,16.58111 12.375,23.437501 4.269447,3.90609 7.375683,4.421178 12.949218,4.238281 4.784225,-0.555882 6.857922,-2.580484 9.812502,-6.128906 2.08395,-3.549948 2.03931,-7.135025 1.23828,-11.109376 -3.51438,-5.271568 -8.052197,-8.322639 -13.710938,-10.929687 L 90.39696,26.278953 c -4.71816,-2.053947 -8.904776,-3.658684 -14.125,-3.75 z m 41.40039,97.224607 c 6.24455,0.32641 12.40724,2.32205 17.94727,5.96289 7.16467,5.74131 11.78889,12.92533 13.03125,22.09375 0.31934,10.13648 -1.31484,18.80111 -7.87891,26.71875 -7.14419,7.41663 -14.84875,10.65153 -25.0625,11 -11.83639,-0.33109 -18.825339,-5.54098 -26.8125,-13.75 -5.757163,-8.84136 -6.874977,-17.05355 -5.0625,-27.3125 2.143181,-8.45367 7.986039,-16.08337 15.398437,-20.66406 5.868503,-3.03243 12.194903,-4.37524 18.439453,-4.04883 z"
     fill="currentColor" />
  <defs
     id="defs5" />
  <sodipodi:namedview
     id="namedview5"
     pagecolor="#ffffff"
     bordercolor="#000000"
     borderopacity="0.25"
     inkscape:showpageshadow="2"
     inkscape:pageopacity="0.0"
     inkscape:pagecheckerboard="0"
     inkscape:deskcolor="#d1d1d1"
     inkscape:zoom="2.4832038"
     inkscape:cx="72.889709"
     inkscape:cy="122.42249"
     inkscape:window-width="1920"
     inkscape:window-height="993"
     inkscape:window-x="0"
     inkscape:window-y="0"
     inkscape:window-maximized="1"
     inkscape:current-layer="svg5" />
</svg>
