<?xml version="1.0" encoding="UTF-8" standalone="no"?>
<svg
   version="1.1"
   id="svg5"
   sodipodi:docname="lingonperry.svg"
   viewBox="0 0 384 512"
   inkscape:version="1.4.2 (ebf0e940d0, 2025-05-08)"
   xmlns:inkscape="http://www.inkscape.org/namespaces/inkscape"
   xmlns:sodipodi="http://sodipodi.sourceforge.net/DTD/sodipodi-0.dtd"
   xmlns="http://www.w3.org/2000/svg"
   xmlns:svg="http://www.w3.org/2000/svg">
  <path
     id="path1"
     d="m 168.13714,4.8669581 c -2.92205,-0.1135132 -6.059,0.6182448 -10.17799,2.0893139 0,8.249796 0,8.249796 3.68449,12.181344 13.23459,12.518367 19.47071,30.201018 22.70845,47.715645 0.76258,4.205361 1.65164,8.389078 2.6425,12.546577 l 1.55759,6.101412 2.08392,8.196102 c -7.55217,0.784978 -14.79538,3.039695 -20.61375,7.111138 l -4.67273,3.9423 c -16.54664,13.61528 -27.31067,30.85507 -34.79312,50.7019 -1.86183,5.14758 -3.76215,10.28863 -5.68249,15.41466 l -3.29776,8.72245 c -4.85569,12.84897 -9.92068,25.5807 -15.18371,38.26812 -1.82227,4.38175 -3.64235,8.76857 -5.4569,13.15351 -2.759039,6.66934 -5.516829,13.3369 -8.287399,20.00145 -9.901256,23.48525 -19.367239,46.78234 -26.161967,71.38548 l -1.8315,6.90171 c -4.522257,16.97723 -7.236575,32.74417 -6.326995,50.44408 l 0.633774,6.70297 c 0.859354,10.31226 0.859354,10.31226 2.749934,19.24953 11.440637,37.49986 33.19358,67.09844 66.857753,87.48227 37.79919,19.13209 73.53502,22.31199 113.8537,9.45291 34.23024,-13.0246 61.11096,-37.32103 77.27745,-70.29519 l 3.2548,-7.39045 2.82512,-6.18735 C 345.94202,365.24206 323.04545,308.41268 302.67443,259.09081 294.1525,238.73319 285.90308,218.48276 279.06367,197.49122 266.91534,159.48456 255.76551,118.84851 219.2526,97.349599 213.27578,95.075141 206.31196,93.672641 199.25115,93.418062 200.00348,63.874736 194.88629,35.767739 179.95863,9.7062021 175.29471,6.5549067 171.89409,5.01291 168.13714,4.8669581 Z M 86.804637,10.909296 C 75.94628,11.47982 70.64055,13.314374 68.930063,25.002707 c 2.727683,25.003781 18.277305,45.596954 34.030437,64.451572 11.74068,10.741491 20.28263,12.157961 35.60948,11.655001 13.1563,-1.528641 18.85883,-7.09617 26.98373,-16.854095 5.73073,-9.762117 5.60797,-19.620842 3.40519,-30.550044 -9.66432,-14.496463 -22.14302,-22.886706 -37.70417,-30.055915 l -5.6073,-2.427678 C 112.67281,15.573331 101.15991,11.160411 86.804637,10.909296 Z M 200.65295,278.27053 c 17.1721,0.8976 34.11911,6.38548 49.35382,16.39754 19.70236,15.78823 32.41866,35.54382 35.83507,60.75637 0.87816,27.87464 -3.61572,51.7018 -21.66648,73.47478 -19.64605,20.39525 -40.83308,29.291 -68.92022,30.24927 -32.54929,-0.91048 -51.76844,-15.23732 -73.7326,-37.81158 -15.83181,-24.31316 -18.90573,-46.89614 -13.92154,-75.10756 5.8936,-23.24704 21.96108,-44.22822 42.34468,-56.82481 16.13799,-8.33898 33.53518,-12.03162 50.70727,-11.13401 z"
     fill="currentColor"
     style="stroke-width:1.07015" />
  <defs
     id="defs5" />
  <sodipodi:namedview
     id="namedview5"
     inkscape:zoom="3.9640204"
     inkscape:cx="204.338"
     inkscape:cy="-39.101716"
     inkscape:window-width="1920"
     inkscape:window-height="993"
     inkscape:window-x="0"
     inkscape:window-y="0"
     inkscape:window-maximized="1"
     inkscape:current-layer="svg5"
     pagecolor="#ffffff"
     bordercolor="#000000"
     borderopacity="0.25"
     inkscape:showpageshadow="2"
     inkscape:pageopacity="0.0"
     inkscape:pagecheckerboard="0"
     inkscape:deskcolor="#d1d1d1" />
</svg>
