<?xml version="1.0" encoding="UTF-8" standalone="no"?>
<svg
   width="48"
   height="48"
   viewBox="0 0 384 512"
   fill="currentColor"
   version="1.1"
   id="svg2"
   sodipodi:docname="tidal.svg"
   inkscape:version="1.4.2 (ebf0e940d0, 2025-05-08)"
   xmlns:inkscape="http://www.inkscape.org/namespaces/inkscape"
   xmlns:sodipodi="http://sodipodi.sourceforge.net/DTD/sodipodi-0.dtd"
   xmlns="http://www.w3.org/2000/svg"
   xmlns:svg="http://www.w3.org/2000/svg">
  <defs
     id="defs2" />
  <sodipodi:namedview
     id="namedview2"
     pagecolor="#ffffff"
     bordercolor="#000000"
     borderopacity="0.25"
     inkscape:showpageshadow="2"
     inkscape:pageopacity="0.0"
     inkscape:pagecheckerboard="0"
     inkscape:deskcolor="#d1d1d1"
     inkscape:zoom="8.7451628"
     inkscape:cx="-8.8048675"
     inkscape:cy="-0.8004425"
     inkscape:window-width="1920"
     inkscape:window-height="993"
     inkscape:window-x="0"
     inkscape:window-y="0"
     inkscape:window-maximized="1"
     inkscape:current-layer="svg2" />
  <path
     id="path1"
     d="M 193.33333 5.7916667 C 54.852427 5.7916667 -57.416667 118.06077 -57.416667 256.54167 C -57.416667 395.02257 54.852427 507.29167 193.33333 507.29167 C 331.81423 507.29167 444.08333 395.02257 444.08333 256.54167 C 444.08333 118.06077 331.81423 5.7916667 193.33333 5.7916667 z M 92.541667 181.3125 L 93.166667 181.3125 C 96.195427 184.78737 99.479836 188.0196 102.77083 191.25 C 104.62424 193.06893 106.47379 194.87778 108.29167 196.75 L 142.58333 231.04167 L 142.58333 231.66667 C 134.30992 239.90147 126.04632 248.18487 117.79167 256.45833 C 109.48164 264.7882 101.18404 273.10566 92.854167 281.39583 C 84.513845 273.09521 76.195469 264.7788 67.875 256.45833 C 59.55348 248.13681 51.236053 239.82249 42.895833 231.52083 C 43.477873 230.41129 44.400783 229.55877 45.333333 228.70833 C 45.770663 228.31028 46.207887 227.90021 46.604167 227.47917 C 52.718527 221.30359 58.871373 215.15671 65.020833 209.02083 C 74.242933 199.81754 83.464789 190.62236 92.541667 181.3125 z M 193.83333 181.3125 L 194.45833 181.3125 C 194.92534 182.01144 195.37941 182.62941 196 183.25 C 202.42841 189.61572 208.83628 196.03208 215.22917 202.4375 C 224.56826 211.79436 233.90323 221.15801 243.375 230.41667 C 248.19553 225.7142 252.93907 220.94122 257.6875 216.16667 C 261.01506 212.82134 264.33695 209.46608 267.6875 206.14583 C 270.62432 203.1808 273.58604 200.24514 276.54167 197.3125 C 281.86055 192.03332 287.18881 186.74838 292.375 181.3125 L 292.97917 181.3125 C 294.95481 183.68306 297.15913 185.83009 299.35417 187.97917 C 300.60893 189.2078 301.87036 190.43894 303.08333 191.70833 L 315.60417 204.22917 L 340.70833 229.35417 C 340.88385 229.55058 341.08063 229.74213 341.29167 229.9375 C 341.82868 230.43376 342.39639 230.9416 342.5625 231.66667 C 334.41664 239.58587 326.39772 247.6584 318.375 255.72917 C 309.81528 264.33904 301.25085 272.94685 292.52083 281.39583 L 244.8125 233.6875 C 244.57847 233.43049 244.31429 233.19235 244.0625 232.95833 C 243.81067 232.72534 243.55796 232.49761 243.33333 232.25 C 243.1202 232.47776 242.89756 232.6827 242.66667 232.89583 C 242.49742 233.05255 242.32756 233.21515 242.16667 233.375 C 234.17947 241.32563 226.21943 249.30139 218.25 257.27083 C 210.19904 265.32178 202.13223 273.36476 194.0625 281.39583 C 186.61441 274.05221 179.24063 266.6563 171.85417 259.25 C 162.62058 249.99238 153.37353 240.7208 144.02083 231.58333 C 152.61921 222.61615 161.45613 213.83437 170.29167 205.04167 C 178.19633 197.17462 186.10315 189.29969 193.83333 181.3125 z M 193.6875 282.45833 L 194.375 282.77083 C 210.82371 299.29685 227.27167 315.81715 243.875 332.1875 C 243.52083 332.99719 242.89559 333.5816 242.27083 334.16667 C 241.93755 334.47801 241.60921 334.79584 241.3125 335.14583 C 235.36991 341.05082 229.42281 346.9949 223.47917 352.9375 C 217.47388 358.94278 211.48341 364.93025 205.47917 370.89583 C 203.92562 372.3867 202.38265 373.95474 200.85417 375.52083 C 198.56614 377.86527 196.28827 380.21985 193.91667 382.3125 C 190.61522 379.32762 187.47284 376.12924 184.33333 372.9375 C 182.08814 370.6547 179.8391 368.36694 177.54167 366.16667 C 174.78977 363.41477 172.0373 360.66857 169.29167 357.91667 C 160.89075 349.50112 152.49906 341.09039 144.02083 332.72917 C 144.09815 332.5735 144.1716 332.38183 144.25 332.1875 C 144.32732 331.99422 144.4227 331.80149 144.5 331.64583 C 149.9547 326.19218 155.40882 320.74845 160.875 315.29167 C 171.81364 304.36974 182.77185 293.42623 193.6875 282.45833 z " />
</svg>
